<svg width="200" height="200" version="1.1" xmlns="http://www.w3.org/2000/svg" desc="Created with imagetracer.js version 1.2.6" ><path fill="rgb(244,243,247)" stroke="rgb(244,243,247)" stroke-width="1" opacity="1" d="M 131.5 40 L 134 40.5 L 131.5 41 L 131.5 40 Z " /><path fill="rgb(244,243,247)" stroke="rgb(244,243,247)" stroke-width="1" opacity="1" d="M 136.5 41 L 135.5 43 L 133 42.5 L 136.5 41 Z " /><path fill="rgb(244,243,247)" stroke="rgb(244,243,247)" stroke-width="1" opacity="1" d="M 139.5 42 L 140.5 46 L 137 43.5 L 139.5 42 Z " /><path fill="rgb(244,243,247)" stroke="rgb(244,243,247)" stroke-width="1" opacity="1" d="M 115 45 L 117 45.5 L 114 47.5 L 115 45 Z " /><path fill="rgb(244,243,247)" stroke="rgb(244,243,247)" stroke-width="1" opacity="1" d="M 142 46 L 144 46.5 L 142 47.5 L 142 46 Z " /><path fill="rgb(244,243,247)" stroke="rgb(244,243,247)" stroke-width="1" opacity="1" d="M 79 48 L 83 48.5 L 81.5 50 L 79 49.5 L 79 48 Z " /><path fill="rgb(244,243,247)" stroke="rgb(244,243,247)" stroke-width="1" opacity="1" d="M 92.5 48 Q 97.3 46.7 96 50 L 92.5 49 L 92.5 51 L 89 49.5 L 92.5 48 Z " /><path fill="rgb(244,243,247)" stroke="rgb(244,243,247)" stroke-width="1" opacity="1" d="M 73.5 49 L 72.5 51 L 73.5 49 Z " /><path fill="rgb(244,243,247)" stroke="rgb(244,243,247)" stroke-width="1" opacity="1" d="M 67.5 51 L 71 51.5 L 64.5 55 L 64 53 L 67.5 51 Z " /><path fill="rgb(244,243,247)" stroke="rgb(244,243,247)" stroke-width="1" opacity="1" d="M 113.5 51 L 112.5 53 L 113.5 51 Z " /><path fill="rgb(244,243,247)" stroke="rgb(244,243,247)" stroke-width="1" opacity="1" d="M 56.5 56 Q 58.8 55.3 58 57.5 L 59.5 57 L 63 58.5 L 60 60.5 L 60.5 62 Q 61.8 59.8 63 62.5 L 61.5 64 Q 60 60.5 58.5 63 L 56 61.5 L 59 60.5 L 57.5 58 L 56.5 60 L 56 58.5 L 56.5 56 Z M 59 58 L 59 60 L 61 59 L 59 58 Z " /><path fill="rgb(244,243,247)" stroke="rgb(244,243,247)" stroke-width="1" opacity="1" d="M 63.5 56 L 66 57.5 L 64.5 61 L 64.5 57 L 63.5 56 Z " /><path fill="rgb(244,243,247)" stroke="rgb(244,243,247)" stroke-width="1" opacity="1" d="M 100.5 56 L 101 58.5 L 100 58.5 L 100.5 56 Z " /><path fill="rgb(244,243,247)" stroke="rgb(244,243,247)" stroke-width="1" opacity="1" d="M 102.5 58 L 104 61.5 L 102 60.5 L 102.5 58 Z " /><path fill="rgb(244,243,247)" stroke="rgb(244,243,247)" stroke-width="1" opacity="1" d="M 54 64 L 57 65.5 L 54 67.5 L 54 64 Z " /><path fill="rgb(244,243,247)" stroke="rgb(244,243,247)" stroke-width="1" opacity="1" d="M 102.5 64 L 103 67.5 L 102 67.5 L 102.5 64 Z " /><path fill="rgb(244,243,247)" stroke="rgb(244,243,247)" stroke-width="1" opacity="1" d="M 97.5 67 L 98 69.5 L 97 69.5 L 97.5 67 Z " /><path fill="rgb(244,243,247)" stroke="rgb(244,243,247)" stroke-width="1" opacity="1" d="M 113.5 67 L 113 68.5 L 112.5 70 L 112 68.5 L 113.5 67 Z " /><path fill="rgb(244,243,247)" stroke="rgb(244,243,247)" stroke-width="1" opacity="1" d="M 114.5 69 L 116.5 72 L 114 71.5 L 114.5 69 Z " /><path fill="rgb(244,243,247)" stroke="rgb(244,243,247)" stroke-width="1" opacity="1" d="M 138.5 72 L 137.5 74 L 138.5 72 Z " /><path fill="rgb(244,243,247)" stroke="rgb(244,243,247)" stroke-width="1" opacity="1" d="M 112 73 Q 115.3 71.9 114 76 Q 110.7 77.1 112 73 Z " /><path fill="rgb(244,243,247)" stroke="rgb(244,243,247)" stroke-width="1" opacity="1" d="M 51 74 Q 54.3 72.7 53 77.5 L 54 79.5 L 52.5 86 Q 53.2 79.3 50 76.5 L 51 74 Z " /><path fill="rgb(244,243,247)" stroke="rgb(244,243,247)" stroke-width="1" opacity="1" d="M 120.5 74 L 123 75.5 L 121 76.5 L 124 77.5 L 121.5 78 L 119.5 77 L 115.5 80 L 115 77.5 Q 116.4 74.9 121 75.5 L 120.5 74 Z " /><path fill="rgb(244,243,247)" stroke="rgb(244,243,247)" stroke-width="1" opacity="1" d="M 84.5 75 L 83.5 77 L 84.5 75 Z " /><path fill="rgb(244,243,247)" stroke="rgb(244,243,247)" stroke-width="1" opacity="1" d="M 89.5 75 L 92 75.5 L 86 79.5 L 88.5 83 L 89.5 82 L 93 84.5 L 91 81.5 L 94 81 L 94 84 Q 96.7 82.9 96 85.5 L 94.5 85 L 91.5 86 L 88.5 84 L 87 84.5 L 87.5 83 L 85 82.5 L 87 81.5 L 85 81 L 86 78.5 L 85.5 77 L 89.5 75 Z " /><path fill="rgb(244,243,247)" stroke="rgb(244,243,247)" stroke-width="1" opacity="1" d="M 132.5 75 Q 135.1 74.3 134 77 L 130 76.5 L 132.5 75 Z " /><path fill="rgb(244,243,247)" stroke="rgb(244,243,247)" stroke-width="1" opacity="1" d="M 141.5 75 L 142 78 Q 137.9 79.3 139 76 L 141.5 75 Z " /><path fill="rgb(244,243,247)" stroke="rgb(244,243,247)" stroke-width="1" opacity="1" d="M 133.5 78 L 135.5 79 L 138 78 L 136.5 81 L 133.5 78 Z " /><path fill="rgb(244,243,247)" stroke="rgb(244,243,247)" stroke-width="1" opacity="1" d="M 83.5 80 L 82.5 82 L 83.5 80 Z " /><path fill="rgb(244,243,247)" stroke="rgb(244,243,247)" stroke-width="1" opacity="1" d="M 97.5 86 L 101 86.5 L 97.5 87 L 97.5 86 Z " /><path fill="rgb(244,243,247)" stroke="rgb(244,243,247)" stroke-width="1" opacity="1" d="M 53.5 87 L 53 88.5 Q 53.7 91.1 51 90 Q 49.9 87.3 52.5 88 L 53.5 87 Z " /><path fill="rgb(244,243,247)" stroke="rgb(244,243,247)" stroke-width="1" opacity="1" d="M 108.5 88 L 111.5 89 L 113.5 89 L 118.5 88 L 118.5 89 L 113.5 91 L 112.5 89 L 106.5 91 L 108.5 88 Z " /><path fill="rgb(244,243,247)" stroke="rgb(244,243,247)" stroke-width="1" opacity="1" d="M 118.5 90 L 120 90.5 L 117.5 92 L 118.5 90 Z " /><path fill="rgb(244,243,247)" stroke="rgb(244,243,247)" stroke-width="1" opacity="1" d="M 57.5 93 L 57.5 96 Q 54.5 94.5 57.5 93 Z " /><path fill="rgb(244,243,247)" stroke="rgb(244,243,247)" stroke-width="1" opacity="1" d="M 128.5 96 L 132 98.5 L 129 98.5 L 129.5 97 L 128.5 96 Z " /><path fill="rgb(244,243,247)" stroke="rgb(244,243,247)" stroke-width="1" opacity="1" d="M 134.5 96 L 136 97.5 L 134.5 101 L 133 99.5 L 134.5 96 Z " /><path fill="rgb(244,243,247)" stroke="rgb(244,243,247)" stroke-width="1" opacity="1" d="M 58.5 98 L 60.5 101 L 58 99.5 L 57.5 101 L 56.5 99 L 58.5 98 Z " /><path fill="rgb(244,243,247)" stroke="rgb(244,243,247)" stroke-width="1" opacity="1" d="M 139.5 100 L 140 102 L 138 101.5 L 139.5 100 Z " /><path fill="rgb(244,243,247)" stroke="rgb(244,243,247)" stroke-width="1" opacity="1" d="M 56.5 102 L 58.5 102 L 62 103.5 L 60.5 103 L 57.5 104 L 56.5 102 Z " /><path fill="rgb(244,243,247)" stroke="rgb(244,243,247)" stroke-width="1" opacity="1" d="M 65.5 104 L 68 109.5 L 65 111.5 Q 69 109.5 65 107.5 L 65.5 104 Z " /><path fill="rgb(244,243,247)" stroke="rgb(244,243,247)" stroke-width="1" opacity="1" d="M 70.5 104 L 71.5 106 L 70.5 104 Z " /><path fill="rgb(244,243,247)" stroke="rgb(244,243,247)" stroke-width="1" opacity="1" d="M 142.5 104 L 144 107.5 L 143.5 109 L 141 105.5 L 142.5 104 Z " /><path fill="rgb(244,243,247)" stroke="rgb(244,243,247)" stroke-width="1" opacity="1" d="M 68.5 105 L 72 107.5 L 69.5 109 L 69.5 107 Q 66.7 107.7 68.5 105 Z " /><path fill="rgb(244,243,247)" stroke="rgb(244,243,247)" stroke-width="1" opacity="1" d="M 73.5 108 L 74.5 110 L 73 110.5 L 73.5 112 L 71 110.5 L 73 110 L 73.5 108 Z " /><path fill="rgb(244,243,247)" stroke="rgb(244,243,247)" stroke-width="1" opacity="1" d="M 76.5 110 L 77.5 112 Q 74.7 112.7 76.5 110 Z " /><path fill="rgb(244,243,247)" stroke="rgb(244,243,247)" stroke-width="1" opacity="1" d="M 79 110 L 83 111.5 L 81.5 112 L 79 111.5 L 79 110 Z " /><path fill="rgb(244,243,247)" stroke="rgb(244,243,247)" stroke-width="1" opacity="1" d="M 94.5 112 L 95.5 114 L 94.5 112 Z " /><path fill="rgb(244,243,247)" stroke="rgb(244,243,247)" stroke-width="1" opacity="1" d="M 91.5 114 Q 93.8 113.3 93 115.5 L 91.5 114 Z " /><path fill="rgb(244,243,247)" stroke="rgb(244,243,247)" stroke-width="1" opacity="1" d="M 95.5 116 L 96.5 118 Q 97.3 115.3 101.5 116 L 105 117.5 L 100.5 119 L 100.5 118 L 102 117.5 L 99.5 117 Q 98.8 119.7 94.5 119 L 95 117.5 L 95.5 116 Z " /><path fill="rgb(244,243,247)" stroke="rgb(244,243,247)" stroke-width="1" opacity="1" d="M 107.5 117 L 106.5 119 L 107.5 117 Z " /><path fill="rgb(244,243,247)" stroke="rgb(244,243,247)" stroke-width="1" opacity="1" d="M 117.5 120 L 116 122.5 L 117 126 L 119 126.5 L 116 128.5 Q 116.8 130.8 114.5 130 Q 113.2 132.3 108.5 131 L 105.5 134 L 103 133.5 Q 102.2 130.9 105.5 132 Q 106.9 129 112 129.5 L 111.5 128 L 116 125.5 L 115 122.5 L 117.5 120 Z " /><path fill="rgb(244,243,247)" stroke="rgb(244,243,247)" stroke-width="1" opacity="1" d="M 113.5 121 L 114 122.5 L 113.5 125 Q 110.8 123.7 113 122.5 L 113.5 121 Z " /><path fill="rgb(244,243,247)" stroke="rgb(244,243,247)" stroke-width="1" opacity="1" d="M 145.5 122 L 146 125.5 L 144 124.5 L 145.5 122 Z " /><path fill="rgb(244,243,247)" stroke="rgb(244,243,247)" stroke-width="1" opacity="1" d="M 109.5 132 L 112 132.5 L 108.5 134 L 109.5 132 Z " /><path fill="rgb(244,243,247)" stroke="rgb(244,243,247)" stroke-width="1" opacity="1" d="M 96.5 136 L 99 136.5 L 97.5 139 L 100.5 137 L 100.5 140 L 99 139.5 L 98.5 142 L 97 141.5 L 99 144.5 L 96.5 148 L 96 145.5 L 96 143.5 L 97 140.5 L 96 138.5 L 96.5 136 Z " /><path fill="rgb(244,243,247)" stroke="rgb(244,243,247)" stroke-width="1" opacity="1" d="M 142.5 140 Q 145 141 144 145.5 L 143 145.5 L 142.5 144 L 140 150 L 138 149.5 L 142 143.5 L 142 141.5 L 142.5 140 Z " /><path fill="rgb(244,243,247)" stroke="rgb(244,243,247)" stroke-width="1" opacity="1" d="M 137.5 144 L 135.5 147 L 137.5 144 Z " /><path fill="rgb(244,243,247)" stroke="rgb(244,243,247)" stroke-width="1" opacity="1" d="M 138.5 146 L 137.5 148 L 138.5 146 Z " /><path fill="rgb(244,243,247)" stroke="rgb(244,243,247)" stroke-width="1" opacity="1" d="M 96.5 149 L 98 151.5 L 96 150.5 L 96.5 149 Z " /><path fill="rgb(244,243,247)" stroke="rgb(244,243,247)" stroke-width="1" opacity="1" d="M 142.5 149 L 144 151.5 L 142.5 151 L 140.5 152 L 142.5 149 Z " /><path fill="rgb(244,243,247)" stroke="rgb(244,243,247)" stroke-width="1" opacity="1" d="M 138.5 151 L 138 152.5 L 138 156 L 133 156 L 134.5 153 L 138.5 151 Z " /><path fill="rgb(244,243,247)" stroke="rgb(244,243,247)" stroke-width="1" opacity="1" d="M 96.5 153 L 98.5 154 L 100 153.5 L 99 154.5 L 101.5 158 L 100 158.5 L 100.5 160 L 98 159 L 96 155.5 L 96.5 153 Z M 99 156 L 100 158 Q 101 155 99 156 Z " /><path fill="rgb(244,243,247)" stroke="rgb(244,243,247)" stroke-width="1" opacity="1" d="M 126.5 155 L 127.5 157 L 126.5 155 Z " /><path fill="rgb(244,243,247)" stroke="rgb(244,243,247)" stroke-width="1" opacity="1" d="M 123.5 156 L 126 157.5 L 124.5 157 L 123.5 156 Z " /><path fill="rgb(244,243,247)" stroke="rgb(244,243,247)" stroke-width="1" opacity="1" d="M 121.5 157 L 124 158.5 L 118.5 160 L 116.5 160 Q 111.1 160.9 109 158.5 L 110.5 158 L 112.5 158 L 116.5 159 L 118.5 158 L 121 159 L 121.5 157 Z " /><path fill="rgb(244,243,247)" stroke="rgb(244,243,247)" stroke-width="1" opacity="1" d="M 103.5 158 L 104.5 160 L 102 159.5 L 103.5 158 Z " /><path fill="rgb(244,243,247)" stroke="rgb(244,243,247)" stroke-width="1" opacity="1" d="M 106.5 158 L 107.5 160 L 106.5 158 Z " /><path fill="rgb(247,245,250)" stroke="rgb(247,245,250)" stroke-width="1" opacity="1" d="M 0 0 L 200 0 L 200 200 L 0 200 L 0 0 Z M 118 34 L 118 35 L 121 35 L 118 34 Z M 127 34 L 125 37 L 130 36 Q 131 33 127 34 Z M 143 34 L 132 38 L 132 41 L 141 37 L 144 37 L 143 34 Z M 113 36 Q 110 38 113 39 L 117 37 L 113 36 Z M 120 40 L 117 42 L 120 44 L 119 44 L 119 46 L 118 45 Q 114 44 115 47 L 115 49 L 112 50 L 114 51 L 111 55 L 110 64 L 113 63 L 113 66 L 112 69 L 114 72 Q 116 71 115 74 L 114 73 Q 111 72 112 76 L 116 77 L 115 80 L 117 80 L 116 82 Q 121 83 123 80 L 124 80 L 124 76 Q 129 75 131 78 L 128 79 L 130 79 Q 131 82 133 80 L 137 81 L 138 79 L 138 77 L 137 75 L 141 72 Q 142 70 143 73 L 142 75 L 144 75 L 143 69 L 145 67 Q 143 60 146 59 L 145 51 L 143 48 L 144 46 L 142 47 L 141 46 Q 140 43 139 45 L 139 43 L 136 44 L 136 43 L 127 42 Q 125 39 120 40 Z M 141 40 L 141 42 L 139 43 L 144 45 L 145 43 L 141 40 Z M 113 43 L 111 45 L 114 46 L 115 44 L 113 43 Z M 78 48 L 78 50 L 79 51 L 76 49 L 75 51 Q 71 52 74 54 L 72 52 L 70 53 L 70 55 L 67 57 L 64 56 L 64 58 L 60 57 L 60 59 L 59 58 L 58 60 Q 61 61 57 63 L 58 65 L 56 64 Q 53 63 54 68 L 57 66 L 58 67 L 57 67 L 57 69 L 55 69 L 54 78 L 53 78 Q 54 73 51 74 L 50 77 Q 53 79 53 86 L 53 81 L 55 80 L 53 88 L 54 92 L 57 93 L 56 95 Q 55 97 58 96 L 58 99 Q 55 98 56 101 L 59 100 L 61 102 L 56 103 Q 57 105 59 103 L 62 104 L 64 101 L 63 103 L 65 103 L 64 105 L 68 110 L 68 109 L 67 106 L 70 107 L 69 109 L 71 109 L 72 108 Q 74 112 76 111 Q 75 113 78 112 L 78 110 Q 80 109 79 112 L 84 111 L 88 113 L 95 113 L 100 116 L 97 118 L 96 116 L 95 118 L 95 119 L 102 117 L 103 120 Q 106 121 105 117 L 108 118 Q 112 117 111 120 Q 116 120 118 124 L 116 124 L 116 122 L 115 125 L 118 126 L 115 127 L 113 126 L 113 128 L 112 128 L 112 130 Q 107 129 106 132 Q 102 131 103 134 L 106 134 L 109 131 Q 113 132 115 130 L 116 131 Q 114 133 110 132 L 104 136 Q 99 134 100 138 L 98 139 L 96 139 L 98 142 L 98 143 L 97 142 L 96 142 L 97 145 Q 95 146 96 151 L 98 150 L 100 153 L 100 155 L 98 153 L 96 154 L 100 157 L 99 157 L 96 158 L 98 160 L 101 158 L 101 160 L 106 158 L 108 158 L 110 159 L 112 158 L 112 160 L 117 160 L 116 159 L 116 158 L 119 160 L 124 159 L 125 156 L 127 156 L 127 154 L 132 152 Q 136 153 135 151 L 138 149 L 140 151 L 139 145 L 142 143 L 143 146 L 144 146 Q 145 141 142 140 L 145 137 L 145 127 L 146 126 L 144 107 L 143 109 L 141 107 L 144 106 Q 143 103 142 105 L 136 103 L 137 99 L 135 100 L 136 98 Q 137 95 135 96 L 133 99 L 131 97 L 130 98 L 130 96 L 128 97 L 123 95 Q 119 96 120 94 L 118 94 L 120 91 L 119 90 L 119 89 L 117 88 L 117 90 L 114 89 L 113 92 Q 110 91 112 90 L 110 88 L 108 89 L 110 92 L 108 93 L 109 91 Q 108 88 107 90 L 100 88 Q 94 90 95 87 L 94 87 L 90 86 L 92 86 L 93 86 L 90 82 L 86 85 Q 85 82 88 83 L 86 80 L 92 76 L 92 75 L 87 77 Q 84 76 85 80 L 82 79 L 83 77 L 84 79 L 85 76 L 87 76 L 91 73 Q 94 74 93 72 L 95 72 L 98 70 L 97 66 L 101 65 L 102 68 L 103 68 Q 104 63 101 64 L 100 60 L 101 57 L 100 57 Q 96 56 97 52 L 91 48 Q 84 48 82 51 L 83 49 L 78 48 Z M 93 48 Q 92 50 96 50 Q 97 47 93 48 Z M 72 49 L 72 51 L 74 50 L 72 49 Z M 68 51 L 67 53 L 71 52 L 68 51 Z M 64 53 L 64 55 L 66 54 L 64 53 Z M 56 56 L 57 60 L 58 58 Q 59 55 56 56 Z M 103 58 L 102 61 L 103 61 L 103 58 Z M 97 71 L 97 72 L 99 72 L 97 71 Z M 142 75 L 141 76 L 139 76 L 139 80 L 143 80 L 142 75 Z M 95 79 L 96 81 L 100 81 L 95 79 Z M 92 81 L 93 84 Q 92 86 95 85 L 96 86 Q 97 83 94 84 L 94 81 L 92 81 Z M 109 83 L 110 86 L 107 87 L 112 87 L 111 86 Q 112 82 109 83 Z M 98 86 L 98 87 L 101 87 L 98 86 Z M 51 88 Q 50 91 53 90 Q 54 87 51 88 Z M 140 100 L 138 102 L 140 102 L 140 100 Z M 65 109 L 64 111 Q 66 114 67 111 L 65 109 Z M 92 114 L 93 116 Q 94 113 92 114 Z M 140 144 L 141 148 L 143 147 L 142 146 Q 143 143 140 144 Z M 143 149 L 141 151 L 144 152 Q 145 148 143 149 Z M 137 152 L 133 155 L 133 156 L 138 156 L 138 152 L 137 152 Z M 128 156 L 127 160 L 128 160 L 128 156 Z " /><path fill="rgb(247,245,250)" stroke="rgb(247,245,250)" stroke-width="1" opacity="1" d="M 119.5 73 L 122 76.5 L 119.5 78 L 119.5 77 L 121 76.5 L 118 76 L 119.5 73 Z " /><path fill="rgb(247,245,250)" stroke="rgb(247,245,250)" stroke-width="1" opacity="1" d="M 83.5 81 L 86 81.5 Q 83.9 84.8 83.5 81 Z " /><path fill="rgb(247,245,250)" stroke="rgb(247,245,250)" stroke-width="1" opacity="1" d="M 114.5 90 L 117 91.5 L 115.5 92 L 114.5 90 Z " /><path fill="rgb(247,245,250)" stroke="rgb(247,245,250)" stroke-width="1" opacity="1" d="M 118.5 157 L 121 157.5 Q 118.9 160.8 118.5 157 Z " /><path fill="rgb(225,201,215)" stroke="rgb(225,201,215)" stroke-width="1" opacity="1" d="M 125.5 43 L 132 43.5 L 125.5 44 L 125.5 43 Z " /><path fill="rgb(225,201,215)" stroke="rgb(225,201,215)" stroke-width="1" opacity="1" d="M 122.5 44 L 124 44.5 L 116 50.5 L 114.5 54 L 114 52.5 L 120.5 45 L 122.5 44 Z " /><path fill="rgb(225,201,215)" stroke="rgb(225,201,215)" stroke-width="1" opacity="1" d="M 136.5 45 L 141 48.5 L 138.5 47 L 136.5 45 Z " /><path fill="rgb(225,201,215)" stroke="rgb(225,201,215)" stroke-width="1" opacity="1" d="M 141.5 50 L 144 55.5 L 143 55.5 L 141.5 50 Z " /><path fill="rgb(225,201,215)" stroke="rgb(225,201,215)" stroke-width="1" opacity="1" d="M 92.5 52 L 95.5 56 L 92.5 52 Z " /><path fill="rgb(225,201,215)" stroke="rgb(225,201,215)" stroke-width="1" opacity="1" d="M 113.5 55 L 114 61.5 L 113 61.5 L 113.5 55 Z " /><path fill="rgb(225,201,215)" stroke="rgb(225,201,215)" stroke-width="1" opacity="1" d="M 68.5 57 L 67.5 59 L 68.5 57 Z " /><path fill="rgb(225,201,215)" stroke="rgb(225,201,215)" stroke-width="1" opacity="1" d="M 60.5 65 L 59.5 67 L 60.5 65 Z " /><path fill="rgb(225,201,215)" stroke="rgb(225,201,215)" stroke-width="1" opacity="1" d="M 96.5 65 L 97 66.5 L 95 67.5 L 96.5 65 Z " /><path fill="rgb(225,201,215)" stroke="rgb(225,201,215)" stroke-width="1" opacity="1" d="M 141.5 67 L 137.5 72 L 141.5 67 Z " /><path fill="rgb(225,201,215)" stroke="rgb(225,201,215)" stroke-width="1" opacity="1" d="M 117.5 69 L 119.5 72 L 117.5 69 Z " /><path fill="rgb(225,201,215)" stroke="rgb(225,201,215)" stroke-width="1" opacity="1" d="M 135.5 72 L 134.5 74 L 132 73.5 L 135.5 72 Z " /><path fill="rgb(225,201,215)" stroke="rgb(225,201,215)" stroke-width="1" opacity="1" d="M 82.5 74 L 81.5 76 L 82.5 74 Z " /><path fill="rgb(225,201,215)" stroke="rgb(225,201,215)" stroke-width="1" opacity="1" d="M 80.5 81 L 84 85.5 L 80 82.5 L 80.5 81 Z " /><path fill="rgb(225,201,215)" stroke="rgb(225,201,215)" stroke-width="1" opacity="1" d="M 59.5 94 L 60.5 96 L 59.5 94 Z " /><path fill="rgb(225,201,215)" stroke="rgb(225,201,215)" stroke-width="1" opacity="1" d="M 66.5 101 L 67.5 103 L 66.5 101 Z " /><path fill="rgb(225,201,215)" stroke="rgb(225,201,215)" stroke-width="1" opacity="1" d="M 133.5 102 L 134.5 104 L 133.5 102 Z " /><path fill="rgb(225,201,215)" stroke="rgb(225,201,215)" stroke-width="1" opacity="1" d="M 139.5 108 L 140.5 110 L 139.5 108 Z " /><path fill="rgb(225,201,215)" stroke="rgb(225,201,215)" stroke-width="1" opacity="1" d="M 115.5 118 L 116.5 120 L 115.5 118 Z " /><path fill="rgb(225,201,215)" stroke="rgb(225,201,215)" stroke-width="1" opacity="1" d="M 139.5 141 L 138.5 143 L 139.5 141 Z " /><path fill="rgb(225,201,215)" stroke="rgb(225,201,215)" stroke-width="1" opacity="1" d="M 132.5 148 L 131.5 150 L 132.5 148 Z " /><path fill="rgb(225,201,215)" stroke="rgb(225,201,215)" stroke-width="1" opacity="1" d="M 102.5 153 L 103.5 155 L 102.5 153 Z " /><path fill="rgb(225,201,215)" stroke="rgb(225,201,215)" stroke-width="1" opacity="1" d="M 107.5 156 L 112 156.5 L 107.5 157 L 107.5 156 Z " /><path fill="rgb(251,241,254)" stroke="rgb(251,241,254)" stroke-width="1" opacity="1" d="M 116.5 36 L 117.5 38 L 116.5 36 Z " /><path fill="rgb(251,241,254)" stroke="rgb(251,241,254)" stroke-width="1" opacity="1" d="M 117.5 45 L 116.5 47 L 117.5 45 Z " /><path fill="rgb(251,241,254)" stroke="rgb(251,241,254)" stroke-width="1" opacity="1" d="M 87.5 48 L 91 48.5 L 89 49.5 L 92.5 51 Q 94 48.5 95.5 52 Q 98.1 51.2 97 54.5 L 100 57.5 L 102 65.5 L 101 65.5 L 100.5 64 L 97.5 65 L 98 63.5 Q 97.9 55.1 92.5 52 L 83.5 51 L 77.5 53 L 76 52.5 Q 76.8 54.8 74.5 54 Q 66.1 57.1 61 63.5 Q 53.7 70.7 56 87.5 Q 58.3 95.3 63.5 100 L 71.5 106 L 73.5 106 L 94 112.5 L 87.5 113 L 85.5 111 L 75.5 110 L 74 110.5 L 75 108 L 72.5 109 L 72.5 107 L 68.5 105 L 66 106 L 65.5 104 L 64 104.5 L 64.5 103 L 62.5 102 L 61 102.5 L 60.5 100 Q 59.3 102.3 58 99.5 L 58.5 98 L 57 97.5 L 58 95.5 L 56 95.5 L 57.5 93 L 54 91.5 L 55 79.5 Q 52.5 78 54 72.5 L 55 69 L 57 68.5 L 56.5 67 L 58 67.5 L 57 65.5 L 58 63 L 61 62.5 L 61 60.5 L 60.5 59 L 59 59.5 L 62.5 57 L 65.5 58 L 68.5 55 L 72.5 53 L 74 53.5 Q 72.9 50.2 75.5 51 L 75.5 49 L 78.5 51 L 80.5 50 L 82.5 51 L 87.5 48 Z " /><path fill="rgb(251,241,254)" stroke="rgb(251,241,254)" stroke-width="1" opacity="1" d="M 97.5 66 L 97 67.5 Q 97.5 71.5 94.5 72 L 93 71.5 Q 93.8 74.1 90.5 73 L 84 75.5 Q 86.3 76.8 83.5 78 Q 82.3 75.8 81 78.5 L 82.5 82 Q 84.8 82.8 84 80.5 L 85 80.5 L 84 82.5 L 86 83 L 88 87 Q 83.3 86.6 81 82.5 L 80 78.5 L 83.5 74 L 95 70 L 97.5 66 Z " /><path fill="rgb(251,241,254)" stroke="rgb(251,241,254)" stroke-width="1" opacity="1" d="M 113.5 68 L 114 71.5 L 112 70.5 L 113.5 68 Z " /><path fill="rgb(251,241,254)" stroke="rgb(251,241,254)" stroke-width="1" opacity="1" d="M 143.5 69 L 144 71.5 L 143 71.5 L 143.5 69 Z " /><path fill="rgb(251,241,254)" stroke="rgb(251,241,254)" stroke-width="1" opacity="1" d="M 115.5 71 L 119 72 L 118 76 L 115 74.5 L 115.5 71 Z " /><path fill="rgb(251,241,254)" stroke="rgb(251,241,254)" stroke-width="1" opacity="1" d="M 136.5 74 L 138 76.5 L 134 78 L 136.5 74 Z " /><path fill="rgb(251,241,254)" stroke="rgb(251,241,254)" stroke-width="1" opacity="1" d="M 121.5 78 L 124 78.5 L 121.5 79 L 121.5 78 Z " /><path fill="rgb(251,241,254)" stroke="rgb(251,241,254)" stroke-width="1" opacity="1" d="M 141.5 78 L 142.5 80 L 140 79.5 L 141.5 78 Z " /><path fill="rgb(251,241,254)" stroke="rgb(251,241,254)" stroke-width="1" opacity="1" d="M 110.5 84 L 112 86.5 L 107.5 87 L 107.5 86 Q 111 87 110.5 84 Z " /><path fill="rgb(251,241,254)" stroke="rgb(251,241,254)" stroke-width="1" opacity="1" d="M 89 86 L 93.5 87 L 95 86.5 Q 94.2 89.1 97.5 88 L 100.5 89 L 112.5 92 L 114.5 91 L 119 92.5 L 118.5 94 L 129 97 L 129.5 99 L 131.5 99 L 135.5 96 L 133 99.5 L 136.5 103 L 141 105 L 142.5 109 Q 145.1 108.2 144 111.5 L 145 112.5 L 145 122.5 L 144 122.5 Q 143.4 106.6 132.5 101 L 115.5 94 L 89 88 L 89 86 Z " /><path fill="rgb(251,241,254)" stroke="rgb(251,241,254)" stroke-width="1" opacity="1" d="M 96.5 113 L 103 114 L 103.5 116 L 106.5 115 Q 115 116.5 119 122.5 L 120 127.5 L 116.5 133 L 109.5 136 L 105.5 136 L 101 140.5 Q 98.7 143.7 100 150.5 L 103.5 155 Q 106.2 157.8 112.5 157 L 122.5 154 L 124 154.5 Q 123.3 152.3 125.5 153 L 138 144.5 Q 144.3 137.8 144.5 125 L 145 137 Q 142.3 135.9 143 138.5 L 143.5 140 L 142 139.5 L 140 143.5 L 141 145.5 L 140 145.5 L 139.5 144 L 138 146.5 L 139 149 L 136.5 149 L 123 156.5 L 123.5 158 L 118.5 157 L 117.5 158 L 103.5 158 L 100 155.5 L 100 152.5 L 97 148.5 L 99 143.5 L 99 141.5 L 101 137.5 L 100.5 136 L 110.5 134 L 112.5 132 L 114 132.5 L 116 129.5 L 117 127 L 119 126.5 L 117 122.5 L 117 121 Q 113.3 122.5 114 119.5 Q 112.3 121.1 110.5 118 L 97.5 115 L 96.5 113 Z " /><path fill="rgb(251,241,254)" stroke="rgb(251,241,254)" stroke-width="1" opacity="1" d="M 143.5 149 L 144 150.5 L 142 151.5 L 143.5 149 Z " /><path fill="rgb(251,241,254)" stroke="rgb(251,241,254)" stroke-width="1" opacity="1" d="M 96.5 157 L 98 159.5 L 97 159.5 L 96.5 157 Z " /><path fill="rgb(251,243,245)" stroke="rgb(251,243,245)" stroke-width="1" opacity="1" d="M 117.5 34 L 121 34.5 L 117.5 35 L 117.5 34 Z " /><path fill="rgb(251,243,245)" stroke="rgb(251,243,245)" stroke-width="1" opacity="1" d="M 127.5 34 Q 131.3 33 130 36 L 125 37 Q 123.9 34.3 126.5 35 L 127.5 34 Z " /><path fill="rgb(251,243,245)" stroke="rgb(251,243,245)" stroke-width="1" opacity="1" d="M 142.5 34 L 144 37 L 132.5 40 L 131.5 38 L 142.5 34 Z " /><path fill="rgb(251,243,245)" stroke="rgb(251,243,245)" stroke-width="1" opacity="1" d="M 112.5 36 Q 117.3 34.7 116 38 L 112.5 39 Q 109.5 37.5 112.5 36 Z " /><path fill="rgb(251,243,245)" stroke="rgb(251,243,245)" stroke-width="1" opacity="1" d="M 119 40 Q 124.1 38.8 125.5 42 L 132.5 42 L 137.5 44 L 145 50.5 L 145 66.5 Q 142.2 67.3 143 71.5 L 144 75 L 142 74.5 L 143 72.5 L 140.5 71 L 135.5 75 L 130 75 L 129.5 77 L 128.5 75 L 123.5 76 L 114 68.5 L 111.5 64 Q 108.9 64.8 110 61.5 Q 112.5 60 111 54.5 Q 115 52.3 115 47 L 120 44.5 L 119 40 Z M 126 43 L 121 45 Q 115 48 113 56 Q 112 66 117 70 L 124 74 L 135 74 L 138 72 L 144 64 Q 146 53 141 49 Q 136 43 126 43 Z " /><path fill="rgb(251,243,245)" stroke="rgb(251,243,245)" stroke-width="1" opacity="1" d="M 141.5 41 L 145 42.5 L 141.5 44 Q 138.5 42.5 141.5 41 Z " /><path fill="rgb(251,243,245)" stroke="rgb(251,243,245)" stroke-width="1" opacity="1" d="M 112.5 43 L 115 43.5 L 114 46 L 111 44.5 L 112.5 43 Z " /><path fill="rgb(251,243,245)" stroke="rgb(251,243,245)" stroke-width="1" opacity="1" d="M 71.5 52 L 72 54 L 69 53.5 L 71.5 52 Z " /><path fill="rgb(251,243,245)" stroke="rgb(251,243,245)" stroke-width="1" opacity="1" d="M 87.5 74 L 89 74.5 L 86.5 76 L 87.5 74 Z " /><path fill="rgb(251,243,245)" stroke="rgb(251,243,245)" stroke-width="1" opacity="1" d="M 114.5 74 L 115.5 76 Q 112.7 76.7 114.5 74 Z " /><path fill="rgb(251,243,245)" stroke="rgb(251,243,245)" stroke-width="1" opacity="1" d="M 117 78 Q 120.8 77 122 79.5 L 120.5 82 Q 115.1 83.9 116 80.5 L 117 78 Z " /><path fill="rgb(251,243,245)" stroke="rgb(251,243,245)" stroke-width="1" opacity="1" d="M 130 78 L 134 79.5 L 131.5 81 L 130 78 Z " /><path fill="rgb(251,243,245)" stroke="rgb(251,243,245)" stroke-width="1" opacity="1" d="M 139 78 L 141 78.5 L 139 79.5 L 139 78 Z " /><path fill="rgb(251,243,245)" stroke="rgb(251,243,245)" stroke-width="1" opacity="1" d="M 81 79 Q 84 78 83 81 Q 80 82 81 79 Z " /><path fill="rgb(251,243,245)" stroke="rgb(251,243,245)" stroke-width="1" opacity="1" d="M 94.5 79 L 100 80.5 L 95.5 81 L 94.5 79 Z " /><path fill="rgb(251,243,245)" stroke="rgb(251,243,245)" stroke-width="1" opacity="1" d="M 109 83 L 111 83.5 L 109 84.5 L 109 83 Z " /><path fill="rgb(251,243,245)" stroke="rgb(251,243,245)" stroke-width="1" opacity="1" d="M 88.5 84 L 89.5 86 L 88.5 84 Z " /><path fill="rgb(251,243,245)" stroke="rgb(251,243,245)" stroke-width="1" opacity="1" d="M 117.5 89 L 118 91 L 115 90.5 L 117.5 89 Z " /><path fill="rgb(251,243,245)" stroke="rgb(251,243,245)" stroke-width="1" opacity="1" d="M 136.5 99 L 137 102 Q 134.3 103.1 135 100.5 L 136.5 99 Z " /><path fill="rgb(251,243,245)" stroke="rgb(251,243,245)" stroke-width="1" opacity="1" d="M 101 158 L 103 158.5 L 101 159.5 L 101 158 Z " /><path fill="rgb(147,101,143)" stroke="rgb(147,101,143)" stroke-width="1" opacity="1" d="M 124.5 44 L 133.5 44 L 141 49.5 L 144 56.5 L 144 61.5 Q 142.2 68.7 136.5 72 Q 132.9 74.9 125.5 74 Q 119 72.5 116 67.5 Q 112.5 63.5 114 54.5 L 120.5 46 L 124.5 44 Z " /><path fill="rgb(147,101,143)" stroke="rgb(147,101,143)" stroke-width="1" opacity="1" d="M 85.5 51 Q 93.6 50.9 96 56.5 L 97 64.5 L 93.5 70 Q 85.4 70.9 81 75.5 L 80 82.5 L 87.5 88 L 125.5 98 Q 133.8 101.2 139 107.5 Q 145.7 114.3 144 129.5 Q 141.6 141.6 133.5 148 Q 124.2 156.2 106.5 156 L 101 151.5 L 100 143.5 L 103.5 138 L 111.5 136 L 119 130.5 L 120 123.5 L 115.5 118 L 105.5 114 L 88.5 111 L 76.5 107 Q 66.8 103.7 61 96.5 Q 54.8 90.2 56 76.5 Q 58.2 64.7 66.5 59 Q 74.3 53.3 85.5 51 Z " /></svg>